<svg width="25" height="25" viewBox="0 0 25 25" fill="none" xmlns="http://www.w3.org/2000/svg">
<path fill-rule="evenodd" clip-rule="evenodd" d="M4.80713 24.8328H20.0664C22.7163 24.8328 24.8726 22.6821 24.8726 20.0338V9.86792V4.79791C24.8726 2.15485 22.7163 0 20.0664 0H4.80713C2.15625 0 0 2.15485 0 4.79791V9.86792V20.0338C0 22.6821 2.15625 24.8328 4.80713 24.8328ZM9.32471 12.4149C9.32471 10.6996 10.7163 9.31036 12.4316 9.31036C14.1494 9.31036 15.541 10.6996 15.541 12.4149C15.541 14.1269 14.1494 15.5193 12.4316 15.5193C10.7163 15.5193 9.32471 14.1269 9.32471 12.4149ZM12.4731 18.6218C9.04102 18.6218 6.25781 15.8463 6.25781 12.4149C6.25781 11.278 6.58643 10.2269 7.12012 9.31036H3.1084V19.3417C3.1084 20.6555 4.17773 21.7252 5.49219 21.7252H19.4126C20.7266 21.7252 21.7959 20.6555 21.7959 19.3417V9.31036H17.8276C18.3623 10.2269 18.6904 11.278 18.6904 12.4149C18.6904 15.8463 15.9067 18.6218 12.4731 18.6218ZM21.79 3.10345V3.50482V6.20795L18.6592 6.21619L18.6489 3.11377L21.3799 3.10345H21.79Z" fill="#000000"/>
</svg>
