<svg width="27" height="25" viewBox="0 0 27 25" fill="none" xmlns="http://www.w3.org/2000/svg">
<path fill-rule="evenodd" clip-rule="evenodd" d="M0.337402 24.8834H6.04828V8.06635H0.337402V24.8834Z" fill="#ffffff"/>
<path fill-rule="evenodd" clip-rule="evenodd" d="M3.23075 0C1.27725 0 0 1.25555 0 2.90579C0 4.51962 1.23921 5.81101 3.15579 5.81101H3.19287C5.18458 5.81101 6.42408 4.51962 6.42408 2.90579C6.38683 1.25555 5.18458 0 3.23075 0Z" fill="#ffffff"/>
<path fill-rule="evenodd" clip-rule="evenodd" d="M20.0662 7.7124C16.9854 7.7124 14.9195 10.546 14.9195 10.546V8.1071H9.2085V24.9242H14.9192V15.5329C14.9192 15.0301 14.9565 14.5281 15.1073 14.1686C15.5202 13.1646 16.4597 12.1246 18.0375 12.1246C20.1039 12.1246 20.9304 13.6668 20.9304 15.9276V24.9242H26.6408V15.2816C26.6408 10.1161 23.8233 7.7124 20.0662 7.7124Z" fill="#ffffff"/>
</svg>
